<?xml version="1.0" standalone="no"?><svg xmlns:xlink="http://www.w3.org/1999/xlink" xmlns="http://www.w3.org/2000/svg" viewBox="0 0 1920 1396.3636363636363" preserveAspectRatio="xMaxYMax slice"><g transform="scale(2.562135112593828)"><rect x="0" y="0" width="749.375" height="545" fill="#ffffff"/><circle cx="34.065" cy="34.065" r="34.065" fill="#ffd05f"/><circle cx="102.195" cy="34.065" r="34.065" fill="#fd5946"/><circle cx="170.315" cy="34.065" r="34.065" fill="#b8ea93"/><circle cx="238.445" cy="34.065" r="34.065" fill="#beec9b"/><circle cx="306.565" cy="34.065" r="34.065" fill="#ffd8d4"/><circle cx="374.695" cy="34.065" r="34.065" fill="#effae7"/><rect x="408.75" y="0" width="68.125" height="68.125" fill="#ffffff"/><circle cx="425.78" cy="17.03" r="17.03" fill="#ffea31"/><circle cx="459.84000000000003" cy="17.03" r="17.03" fill="#ffd369"/><circle cx="425.78" cy="51.09" r="17.03" fill="#fe8f82"/><circle cx="459.84000000000003" cy="51.09" r="17.03" fill="#fd432e"/><rect x="476.875" y="0" width="68.125" height="68.125" fill="#ffffff"/><circle cx="493.90999999999997" cy="17.03" r="17.03" fill="#ffda80"/><circle cx="527.97" cy="17.03" r="17.03" fill="#ffe29d"/><circle cx="493.90999999999997" cy="51.09" r="17.03" fill="#f8fcff"/><circle cx="527.97" cy="51.09" r="17.03" fill="#95d4f9"/><rect x="545" y="0" width="68.125" height="68.125" fill="#ffffff"/><circle cx="562.03" cy="17.03" r="17.03" fill="#fd422d"/><circle cx="596.0899999999999" cy="17.03" r="17.03" fill="#ffd163"/><circle cx="562.03" cy="51.09" r="17.03" fill="#ffefc8"/><circle cx="596.0899999999999" cy="51.09" r="17.03" fill="#83cdf9"/><rect x="613.125" y="0" width="68.125" height="68.125" fill="#ffffff"/><circle cx="630.16" cy="17.03" r="17.03" fill="#fffcf6"/><circle cx="664.22" cy="17.03" r="17.03" fill="#3ab0f5"/><circle cx="630.16" cy="51.09" r="17.03" fill="#ffb80d"/><circle cx="664.22" cy="51.09" r="17.03" fill="#4eb8f6"/><rect x="681.25" y="0" width="68.125" height="68.125" fill="#ffffff"/><circle cx="698.28" cy="17.03" r="17.03" fill="#fff59c"/><circle cx="732.3399999999999" cy="17.03" r="17.03" fill="#fe7768"/><circle cx="698.28" cy="51.09" r="17.03" fill="#fffefe"/><circle cx="732.3399999999999" cy="51.09" r="17.03" fill="#ffe0dd"/><rect x="0" y="68.125" width="68.125" height="68.125" fill="#ffffff"/><circle cx="17.03" cy="85.16" r="17.03" fill="#edfae3"/><circle cx="51.09" cy="85.16" r="17.03" fill="#a2dafa"/><circle cx="17.03" cy="119.22" r="17.03" fill="#ffc842"/><circle cx="51.09" cy="119.22" r="17.03" fill="#ffc538"/><rect x="68.125" y="68.125" width="68.125" height="68.125" fill="#ffffff"/><circle cx="85.16" cy="85.16" r="17.03" fill="#ffc537"/><circle cx="119.22" cy="85.16" r="17.03" fill="#eaf9df"/><circle cx="85.16" cy="119.22" r="17.03" fill="#fff4da"/><circle cx="119.22" cy="119.22" r="17.03" fill="#c0ec9f"/><circle cx="170.315" cy="102.195" r="34.065" fill="#feb9b1"/><circle cx="238.445" cy="102.195" r="34.065" fill="#41b2f5"/><circle cx="306.565" cy="102.195" r="34.065" fill="#f5fbfe"/><circle cx="374.695" cy="102.195" r="34.065" fill="#b2e88a"/><circle cx="442.815" cy="102.195" r="34.065" fill="#fd5441"/><circle cx="510.945" cy="102.195" r="34.065" fill="#ffd4d0"/><circle cx="579.065" cy="102.195" r="34.065" fill="#caeafc"/><circle cx="647.1949999999999" cy="102.195" r="34.065" fill="#ffb607"/><circle cx="715.315" cy="102.195" r="34.065" fill="#fffaf9"/><circle cx="34.065" cy="170.315" r="34.065" fill="#ffb70b"/><circle cx="102.195" cy="170.315" r="34.065" fill="#ffface"/><rect x="136.25" y="136.25" width="68.125" height="68.125" fill="#ffffff"/><circle cx="153.28" cy="153.28" r="17.03" fill="#c4eea6"/><circle cx="187.34" cy="153.28" r="17.03" fill="#fff5dd"/><circle cx="153.28" cy="187.34" r="17.03" fill="#fffacc"/><circle cx="187.34" cy="187.34" r="17.03" fill="#ffd1cc"/><rect x="204.375" y="136.25" width="68.125" height="68.125" fill="#ffffff"/><circle cx="221.41" cy="153.28" r="17.03" fill="#f9fdf5"/><circle cx="255.47" cy="153.28" r="17.03" fill="#f3fbed"/><circle cx="221.41" cy="187.34" r="17.03" fill="#ffc73e"/><circle cx="255.47" cy="187.34" r="17.03" fill="#ffe81a"/><circle cx="306.565" cy="170.315" r="34.065" fill="#ffef62"/><circle cx="374.695" cy="170.315" r="34.065" fill="#fea297"/><circle cx="442.815" cy="170.315" r="34.065" fill="#fff6f5"/><circle cx="510.945" cy="170.315" r="34.065" fill="#fff067"/><rect x="545" y="136.25" width="68.125" height="68.125" fill="#ffffff"/><circle cx="562.03" cy="153.28" r="17.03" fill="#8bd0f9"/><circle cx="596.0899999999999" cy="153.28" r="17.03" fill="#fff177"/><circle cx="562.03" cy="187.34" r="17.03" fill="#fff6a3"/><circle cx="596.0899999999999" cy="187.34" r="17.03" fill="#caefae"/><circle cx="647.1949999999999" cy="170.315" r="34.065" fill="#ffecea"/><rect x="681.25" y="136.25" width="68.125" height="68.125" fill="#ffffff"/><circle cx="698.28" cy="153.28" r="17.03" fill="#fff7b2"/><circle cx="732.3399999999999" cy="153.28" r="17.03" fill="#ffbc18"/><circle cx="698.28" cy="187.34" r="17.03" fill="#feb2aa"/><circle cx="732.3399999999999" cy="187.34" r="17.03" fill="#f3fbed"/><circle cx="34.065" cy="238.445" r="34.065" fill="#fe7464"/><rect x="68.125" y="204.375" width="68.125" height="68.125" fill="#ffffff"/><circle cx="85.16" cy="221.41" r="17.03" fill="#b7ea90"/><circle cx="119.22" cy="221.41" r="17.03" fill="#fffde7"/><circle cx="85.16" cy="255.47" r="17.03" fill="#fd432f"/><circle cx="119.22" cy="255.47" r="17.03" fill="#ffec42"/><circle cx="170.315" cy="238.445" r="34.065" fill="#ffeae8"/><circle cx="238.445" cy="238.445" r="34.065" fill="#70c6f8"/><circle cx="306.565" cy="238.445" r="34.065" fill="#fe9f95"/><circle cx="374.695" cy="238.445" r="34.065" fill="#98d5fa"/><circle cx="442.815" cy="238.445" r="34.065" fill="#ffcb4e"/><circle cx="510.945" cy="238.445" r="34.065" fill="#ffb503"/><circle cx="579.065" cy="238.445" r="34.065" fill="#ffdbd7"/><circle cx="647.1949999999999" cy="238.445" r="34.065" fill="#7ecbf8"/><circle cx="715.315" cy="238.445" r="34.065" fill="#fec9c3"/><circle cx="34.065" cy="306.565" r="34.065" fill="#fffad1"/><rect x="68.125" y="272.5" width="68.125" height="68.125" fill="#ffffff"/><circle cx="85.16" cy="289.53" r="17.03" fill="#ffd672"/><circle cx="119.22" cy="289.53" r="17.03" fill="#a5dbfa"/><circle cx="85.16" cy="323.59000000000003" r="17.03" fill="#ffb707"/><circle cx="119.22" cy="323.59000000000003" r="17.03" fill="#ffe714"/><circle cx="170.315" cy="306.565" r="34.065" fill="#daf4c7"/><rect x="204.375" y="272.5" width="68.125" height="68.125" fill="#ffffff"/><circle cx="221.41" cy="289.53" r="17.03" fill="#ffdeda"/><circle cx="255.47" cy="289.53" r="17.03" fill="#ffe9b5"/><circle cx="221.41" cy="323.59000000000003" r="17.03" fill="#dcf5ca"/><circle cx="255.47" cy="323.59000000000003" r="17.03" fill="#fe897c"/><rect x="272.5" y="272.5" width="68.125" height="68.125" fill="#ffffff"/><circle cx="289.53" cy="289.53" r="17.03" fill="#fff386"/><circle cx="323.59000000000003" cy="289.53" r="17.03" fill="#ffe81d"/><circle cx="289.53" cy="323.59000000000003" r="17.03" fill="#a3dafa"/><circle cx="323.59000000000003" cy="323.59000000000003" r="17.03" fill="#c7e8fc"/><circle cx="374.695" cy="306.565" r="34.065" fill="#fec1ba"/><rect x="408.75" y="272.5" width="68.125" height="68.125" fill="#ffffff"/><circle cx="425.78" cy="289.53" r="17.03" fill="#baeb96"/><circle cx="459.84000000000003" cy="289.53" r="17.03" fill="#b8ea93"/><circle cx="425.78" cy="323.59000000000003" r="17.03" fill="#ffde8e"/><circle cx="459.84000000000003" cy="323.59000000000003" r="17.03" fill="#ffea31"/><rect x="476.875" y="272.5" width="68.125" height="68.125" fill="#ffffff"/><circle cx="493.90999999999997" cy="289.53" r="17.03" fill="#ffef61"/><circle cx="527.97" cy="289.53" r="17.03" fill="#fd4b37"/><circle cx="493.90999999999997" cy="323.59000000000003" r="17.03" fill="#ffbd1e"/><circle cx="527.97" cy="323.59000000000003" r="17.03" fill="#fff38a"/><rect x="545" y="272.5" width="68.125" height="68.125" fill="#ffffff"/><circle cx="562.03" cy="289.53" r="17.03" fill="#ffeeec"/><circle cx="596.0899999999999" cy="289.53" r="17.03" fill="#fd4732"/><circle cx="562.03" cy="323.59000000000003" r="17.03" fill="#ffc53a"/><circle cx="596.0899999999999" cy="323.59000000000003" r="17.03" fill="#ffeae8"/><rect x="613.125" y="272.5" width="68.125" height="68.125" fill="#ffffff"/><circle cx="630.16" cy="289.53" r="17.03" fill="#ffe9b5"/><circle cx="664.22" cy="289.53" r="17.03" fill="#fff599"/><circle cx="630.16" cy="323.59000000000003" r="17.03" fill="#ffee58"/><circle cx="664.22" cy="323.59000000000003" r="17.03" fill="#ffd3ce"/><circle cx="715.315" cy="306.565" r="34.065" fill="#fff59e"/><circle cx="34.065" cy="374.695" r="34.065" fill="#47b5f5"/><rect x="68.125" y="340.625" width="68.125" height="68.125" fill="#ffffff"/><circle cx="85.16" cy="357.65999999999997" r="17.03" fill="#fbfeff"/><circle cx="119.22" cy="357.65999999999997" r="17.03" fill="#ebf9e0"/><circle cx="85.16" cy="391.72" r="17.03" fill="#fffcf5"/><circle cx="119.22" cy="391.72" r="17.03" fill="#ffe4a2"/><rect x="136.25" y="340.625" width="68.125" height="68.125" fill="#ffffff"/><circle cx="153.28" cy="357.65999999999997" r="17.03" fill="#ffef67"/><circle cx="187.34" cy="357.65999999999997" r="17.03" fill="#ffc436"/><circle cx="153.28" cy="391.72" r="17.03" fill="#fff8e8"/><circle cx="187.34" cy="391.72" r="17.03" fill="#f6fcf1"/><rect x="204.375" y="340.625" width="68.125" height="68.125" fill="#ffffff"/><circle cx="221.41" cy="357.65999999999997" r="17.03" fill="#d7f3c2"/><circle cx="255.47" cy="357.65999999999997" r="17.03" fill="#fffcf6"/><circle cx="221.41" cy="391.72" r="17.03" fill="#ffc22f"/><circle cx="255.47" cy="391.72" r="17.03" fill="#bbe4fb"/><rect x="272.5" y="340.625" width="68.125" height="68.125" fill="#ffffff"/><circle cx="289.53" cy="357.65999999999997" r="17.03" fill="#fff4d9"/><circle cx="323.59000000000003" cy="357.65999999999997" r="17.03" fill="#5fbef7"/><circle cx="289.53" cy="391.72" r="17.03" fill="#fe8779"/><circle cx="323.59000000000003" cy="391.72" r="17.03" fill="#fff9c4"/><circle cx="374.695" cy="374.695" r="34.065" fill="#aedefb"/><circle cx="442.815" cy="374.695" r="34.065" fill="#fff38b"/><rect x="476.875" y="340.625" width="68.125" height="68.125" fill="#ffffff"/><circle cx="493.90999999999997" cy="357.65999999999997" r="17.03" fill="#ffeab8"/><circle cx="527.97" cy="357.65999999999997" r="17.03" fill="#ffb605"/><circle cx="493.90999999999997" cy="391.72" r="17.03" fill="#fe7464"/><circle cx="527.97" cy="391.72" r="17.03" fill="#ffcb4d"/><circle cx="579.065" cy="374.695" r="34.065" fill="#fff8be"/><circle cx="647.1949999999999" cy="374.695" r="34.065" fill="#5cbef7"/><circle cx="715.315" cy="374.695" r="34.065" fill="#d2f2bb"/><circle cx="34.065" cy="442.815" r="34.065" fill="#3cb1f5"/><circle cx="102.195" cy="442.815" r="34.065" fill="#e3f7d5"/><circle cx="170.315" cy="442.815" r="34.065" fill="#ffea2d"/><circle cx="238.445" cy="442.815" r="34.065" fill="#ffe60d"/><circle cx="306.565" cy="442.815" r="34.065" fill="#cef1b5"/><circle cx="374.695" cy="442.815" r="34.065" fill="#fffbd8"/><rect x="408.75" y="408.75" width="68.125" height="68.125" fill="#ffffff"/><circle cx="425.78" cy="425.78" r="17.03" fill="#ffed4b"/><circle cx="459.84000000000003" cy="425.78" r="17.03" fill="#fd6554"/><circle cx="425.78" cy="459.84000000000003" r="17.03" fill="#fff9ea"/><circle cx="459.84000000000003" cy="459.84000000000003" r="17.03" fill="#57bbf6"/><rect x="476.875" y="408.75" width="68.125" height="68.125" fill="#ffffff"/><circle cx="493.90999999999997" cy="425.78" r="17.03" fill="#ade782"/><circle cx="527.97" cy="425.78" r="17.03" fill="#fff06a"/><circle cx="493.90999999999997" cy="459.84000000000003" r="17.03" fill="#ffeb3e"/><circle cx="527.97" cy="459.84000000000003" r="17.03" fill="#bbeb98"/><rect x="545" y="408.75" width="68.125" height="68.125" fill="#ffffff"/><circle cx="562.03" cy="425.78" r="17.03" fill="#b8ea92"/><circle cx="596.0899999999999" cy="425.78" r="17.03" fill="#fffcf5"/><circle cx="562.03" cy="459.84000000000003" r="17.03" fill="#fea49a"/><circle cx="596.0899999999999" cy="459.84000000000003" r="17.03" fill="#ffe9b5"/><circle cx="647.1949999999999" cy="442.815" r="34.065" fill="#fff27c"/><rect x="681.25" y="408.75" width="68.125" height="68.125" fill="#ffffff"/><circle cx="698.28" cy="425.78" r="17.03" fill="#eefae5"/><circle cx="732.3399999999999" cy="425.78" r="17.03" fill="#ccebfc"/><circle cx="698.28" cy="459.84000000000003" r="17.03" fill="#a7dbfa"/><circle cx="732.3399999999999" cy="459.84000000000003" r="17.03" fill="#e3f7d4"/><rect x="0" y="476.875" width="68.125" height="68.125" fill="#ffffff"/><circle cx="17.03" cy="493.90999999999997" r="17.03" fill="#75c7f8"/><circle cx="51.09" cy="493.90999999999997" r="17.03" fill="#fecbc5"/><circle cx="17.03" cy="527.97" r="17.03" fill="#fff387"/><circle cx="51.09" cy="527.97" r="17.03" fill="#fd4531"/><rect x="68.125" y="476.875" width="68.125" height="68.125" fill="#ffffff"/><circle cx="85.16" cy="493.90999999999997" r="17.03" fill="#ffee59"/><circle cx="119.22" cy="493.90999999999997" r="17.03" fill="#fe9b90"/><circle cx="85.16" cy="527.97" r="17.03" fill="#feaba2"/><circle cx="119.22" cy="527.97" r="17.03" fill="#2fabf4"/><rect x="136.25" y="476.875" width="68.125" height="68.125" fill="#ffffff"/><circle cx="153.28" cy="493.90999999999997" r="17.03" fill="#daf0fd"/><circle cx="187.34" cy="493.90999999999997" r="17.03" fill="#fe8375"/><circle cx="153.28" cy="527.97" r="17.03" fill="#fefeff"/><circle cx="187.34" cy="527.97" r="17.03" fill="#fff7b2"/><circle cx="238.445" cy="510.945" r="34.065" fill="#85cef9"/><rect x="272.5" y="476.875" width="68.125" height="68.125" fill="#ffffff"/><circle cx="289.53" cy="493.90999999999997" r="17.03" fill="#42b3f5"/><circle cx="323.59000000000003" cy="493.90999999999997" r="17.03" fill="#fff3d5"/><circle cx="289.53" cy="527.97" r="17.03" fill="#ffd7d2"/><circle cx="323.59000000000003" cy="527.97" r="17.03" fill="#7ecbf8"/><circle cx="374.695" cy="510.945" r="34.065" fill="#eaf9df"/><rect x="408.75" y="476.875" width="68.125" height="68.125" fill="#ffffff"/><circle cx="425.78" cy="493.90999999999997" r="17.03" fill="#fe988c"/><circle cx="459.84000000000003" cy="493.90999999999997" r="17.03" fill="#ffe3a0"/><circle cx="425.78" cy="527.97" r="17.03" fill="#fefffd"/><circle cx="459.84000000000003" cy="527.97" r="17.03" fill="#ffc842"/><rect x="476.875" y="476.875" width="68.125" height="68.125" fill="#ffffff"/><circle cx="493.90999999999997" cy="493.90999999999997" r="17.03" fill="#d7f3c1"/><circle cx="527.97" cy="493.90999999999997" r="17.03" fill="#fff8f7"/><circle cx="493.90999999999997" cy="527.97" r="17.03" fill="#d9f0fd"/><circle cx="527.97" cy="527.97" r="17.03" fill="#ffee56"/><rect x="545" y="476.875" width="68.125" height="68.125" fill="#ffffff"/><circle cx="562.03" cy="493.90999999999997" r="17.03" fill="#fffffc"/><circle cx="596.0899999999999" cy="493.90999999999997" r="17.03" fill="#c7e8fc"/><circle cx="562.03" cy="527.97" r="17.03" fill="#feb9b1"/><circle cx="596.0899999999999" cy="527.97" r="17.03" fill="#ffebbc"/><circle cx="647.1949999999999" cy="510.945" r="34.065" fill="#5fbff7"/><circle cx="715.315" cy="510.945" r="34.065" fill="#ffee54"/></g></svg>