<?xml version="1.0" standalone="no"?><svg xmlns:xlink="http://www.w3.org/1999/xlink" xmlns="http://www.w3.org/2000/svg" viewBox="0 0 1920 1396.3636363636363" preserveAspectRatio="xMaxYMax slice"><g transform="scale(2.562135112593828)"><rect x="0" y="0" width="749.375" height="545" fill="#475569"/><circle cx="34.065" cy="34.065" r="6.815" fill="#f9fdf6"/><circle cx="102.195" cy="34.065" r="6.815" fill="#f2fafe"/><circle cx="170.315" cy="34.065" r="6.815" fill="#fff1cf"/><circle cx="238.445" cy="34.065" r="6.815" fill="#fe8779"/><circle cx="306.565" cy="34.065" r="6.815" fill="#fe7869"/><circle cx="374.695" cy="34.065" r="6.815" fill="#a2dafa"/><circle cx="442.815" cy="34.065" r="6.815" fill="#c1eca0"/><circle cx="510.945" cy="34.065" r="6.815" fill="#feaba1"/><circle cx="579.065" cy="34.065" r="6.815" fill="#ffe7ac"/><circle cx="647.195" cy="34.065" r="6.815" fill="#beec9c"/><circle cx="715.315" cy="34.065" r="6.815" fill="#fefffd"/><circle cx="34.065" cy="102.195" r="6.815" fill="#ffc331"/><circle cx="102.195" cy="102.195" r="6.815" fill="#fff59e"/><circle cx="170.315" cy="102.195" r="6.815" fill="#b7ea91"/><circle cx="238.445" cy="102.195" r="6.815" fill="#ffd6d2"/><circle cx="306.565" cy="102.195" r="6.815" fill="#2caaf4"/><circle cx="374.695" cy="102.195" r="6.815" fill="#ffd05e"/><circle cx="442.815" cy="102.195" r="6.815" fill="#a8e57b"/><circle cx="510.945" cy="102.195" r="6.815" fill="#e5f7d8"/><circle cx="579.065" cy="102.195" r="6.815" fill="#fffded"/><circle cx="647.195" cy="102.195" r="6.815" fill="#abddfb"/><circle cx="715.315" cy="102.195" r="6.815" fill="#43b3f5"/><circle cx="34.065" cy="170.315" r="6.815" fill="#fff27b"/><circle cx="102.195" cy="170.315" r="6.815" fill="#ffdb84"/><circle cx="170.315" cy="170.315" r="6.815" fill="#fff4d8"/><circle cx="238.445" cy="170.315" r="6.815" fill="#fd6352"/><circle cx="306.565" cy="170.315" r="6.815" fill="#88cff9"/><circle cx="374.695" cy="170.315" r="6.815" fill="#fecec9"/><circle cx="442.815" cy="170.315" r="6.815" fill="#fffad2"/><circle cx="510.945" cy="170.315" r="6.815" fill="#ffc12b"/><circle cx="579.065" cy="170.315" r="6.815" fill="#e0f6d0"/><circle cx="647.195" cy="170.315" r="6.815" fill="#ffcd53"/><circle cx="715.315" cy="170.315" r="6.815" fill="#ffdc88"/><circle cx="34.065" cy="238.445" r="6.815" fill="#bae3fb"/><circle cx="102.195" cy="238.445" r="6.815" fill="#dbf1fd"/><circle cx="170.315" cy="238.445" r="6.815" fill="#fd5e4c"/><circle cx="238.445" cy="238.445" r="6.815" fill="#7fcbf8"/><circle cx="306.565" cy="238.445" r="6.815" fill="#ffc230"/><circle cx="374.695" cy="238.445" r="6.815" fill="#fe9589"/><circle cx="442.815" cy="238.445" r="6.815" fill="#ffef5f"/><circle cx="510.945" cy="238.445" r="6.815" fill="#bee5fc"/><circle cx="579.065" cy="238.445" r="6.815" fill="#ffe504"/><circle cx="647.195" cy="238.445" r="6.815" fill="#ffe197"/><circle cx="715.315" cy="238.445" r="6.815" fill="#ffe4a4"/><circle cx="34.065" cy="306.565" r="6.815" fill="#fffdea"/><circle cx="102.195" cy="306.565" r="6.815" fill="#fe7f71"/><circle cx="170.315" cy="306.565" r="6.815" fill="#ffbd1c"/><circle cx="238.445" cy="306.565" r="6.815" fill="#fe9387"/><circle cx="306.565" cy="306.565" r="6.815" fill="#f9fdff"/><circle cx="374.695" cy="306.565" r="6.815" fill="#fffce0"/><circle cx="442.815" cy="306.565" r="6.815" fill="#e9f9de"/><circle cx="510.945" cy="306.565" r="6.815" fill="#6fc5f8"/><circle cx="579.065" cy="306.565" r="6.815" fill="#f2fbeb"/><circle cx="647.195" cy="306.565" r="6.815" fill="#fec1bb"/><circle cx="715.315" cy="306.565" r="6.815" fill="#ffe0dd"/><circle cx="34.065" cy="374.695" r="6.815" fill="#ffe717"/><circle cx="102.195" cy="374.695" r="6.815" fill="#c7e8fc"/><circle cx="170.315" cy="374.695" r="6.815" fill="#ffef5e"/><circle cx="238.445" cy="374.695" r="6.815" fill="#b7ea90"/><circle cx="306.565" cy="374.695" r="6.815" fill="#dff6ce"/><circle cx="374.695" cy="374.695" r="6.815" fill="#fd533f"/><circle cx="442.815" cy="374.695" r="6.815" fill="#c1e6fc"/><circle cx="510.945" cy="374.695" r="6.815" fill="#e8f8dd"/><circle cx="579.065" cy="374.695" r="6.815" fill="#ffc027"/><circle cx="647.195" cy="374.695" r="6.815" fill="#ffe3a0"/><circle cx="715.315" cy="374.695" r="6.815" fill="#fe7667"/><circle cx="34.065" cy="442.815" r="6.815" fill="#a7e579"/><circle cx="102.195" cy="442.815" r="6.815" fill="#b5e98f"/><circle cx="170.315" cy="442.815" r="6.815" fill="#98d6fa"/><circle cx="238.445" cy="442.815" r="6.815" fill="#fffaca"/><circle cx="306.565" cy="442.815" r="6.815" fill="#5dbef7"/><circle cx="374.695" cy="442.815" r="6.815" fill="#ffe8b0"/><circle cx="442.815" cy="442.815" r="6.815" fill="#ffda82"/><circle cx="510.945" cy="442.815" r="6.815" fill="#d7effd"/><circle cx="579.065" cy="442.815" r="6.815" fill="#fd4733"/><circle cx="647.195" cy="442.815" r="6.815" fill="#475569"/><circle cx="715.315" cy="442.815" r="6.815" fill="#ffcf5b"/><circle cx="34.065" cy="510.945" r="6.815" fill="#fff3d5"/><circle cx="102.195" cy="510.945" r="6.815" fill="#fe8173"/><circle cx="170.315" cy="510.945" r="6.815" fill="#fe7262"/><circle cx="238.445" cy="510.945" r="6.815" fill="#fe958a"/><circle cx="306.565" cy="510.945" r="6.815" fill="#ffdc88"/><circle cx="374.695" cy="510.945" r="6.815" fill="#ffedeb"/><circle cx="442.815" cy="510.945" r="6.815" fill="#fff4da"/><circle cx="510.945" cy="510.945" r="6.815" fill="#b2e88a"/><circle cx="579.065" cy="510.945" r="6.815" fill="#66c1f7"/><circle cx="647.195" cy="510.945" r="6.815" fill="#fff386"/><circle cx="715.315" cy="510.945" r="6.815" fill="#ffbe1f"/></g></svg>